<svg width="16" height="16" viewBox="0 0 16 16" fill="none" xmlns="http://www.w3.org/2000/svg">
<rect width="16" height="16" fill="#1E1E1E"/>
<rect width="16" height="16" fill="white"/>
<path d="M4.439 8.8335C4.439 8.8845 4.4195 8.925 4.3805 8.955C4.3415 8.985 4.283 9 4.205 9H2.6705C2.5925 9 2.534 8.985 2.495 8.955C2.456 8.925 2.4365 8.8845 2.4365 8.8335C2.4365 8.7525 2.495 8.691 2.612 8.649L2.8775 8.5815C3.0155 8.5365 3.107 8.487 3.152 8.433C3.2 8.379 3.224 8.2905 3.224 8.1675V4.0005C3.224 3.9135 3.212 3.84 3.188 3.78C3.164 3.717 3.104 3.63 3.008 3.519L2.612 3.042C2.573 2.988 2.546 2.9475 2.531 2.9205C2.516 2.8935 2.5085 2.865 2.5085 2.835C2.5085 2.79 2.525 2.757 2.558 2.736C2.591 2.712 2.633 2.7 2.684 2.7H3.458C3.536 2.7 3.6005 2.7135 3.6515 2.7405C3.7055 2.7675 3.761 2.8185 3.818 2.8935L7.6115 7.776L7.4225 8.1765V3.5325C7.4225 3.4125 7.4 3.3255 7.355 3.2715C7.313 3.2145 7.22 3.1635 7.076 3.1185L6.815 3.051C6.698 3.006 6.6395 2.9445 6.6395 2.8665C6.6395 2.8125 6.659 2.772 6.698 2.745C6.737 2.715 6.7955 2.7 6.8735 2.7H8.408C8.486 2.7 8.543 2.715 8.579 2.745C8.618 2.772 8.6375 2.8125 8.6375 2.8665C8.6375 2.9475 8.5805 3.009 8.4665 3.051L8.201 3.1185C8.063 3.1605 7.97 3.21 7.922 3.267C7.877 3.321 7.8545 3.4095 7.8545 3.5325V7.8795C7.8545 7.9695 7.862 8.043 7.877 8.1C7.895 8.157 7.9235 8.2125 7.9625 8.2665L8.2415 8.6175C8.2865 8.6775 8.315 8.724 8.327 8.757C8.339 8.787 8.345 8.8185 8.345 8.8515C8.345 8.8965 8.3285 8.9325 8.2955 8.9595C8.2625 8.9865 8.2145 9 8.1515 9H7.238C7.118 9 7.058 8.952 7.058 8.856C7.058 8.808 7.049 8.7645 7.031 8.7255C7.016 8.6865 6.9665 8.6145 6.8825 8.5095L3.323 3.9105L3.6515 3.654V8.1675C3.6515 8.2875 3.674 8.3745 3.719 8.4285C3.764 8.4825 3.8585 8.5335 4.0025 8.5815L4.2635 8.649C4.3805 8.691 4.439 8.7525 4.439 8.8335Z" fill="#1D4ED8"/>
<path d="M10.7675 8.051L10.4705 8.105C10.4015 8.123 10.3475 8.153 10.3085 8.195C10.2695 8.234 10.25 8.285 10.25 8.348V13.3115C10.25 13.4255 10.2845 13.508 10.3535 13.559C10.4225 13.607 10.532 13.631 10.682 13.631H11.627C11.801 13.631 11.948 13.6085 12.068 13.5635C12.191 13.5185 12.2975 13.439 12.3875 13.325C12.4805 13.211 12.5705 13.0505 12.6575 12.8435L12.9095 12.2405C12.9395 12.1775 12.974 12.1355 13.013 12.1145C13.055 12.0905 13.1045 12.0845 13.1615 12.0965C13.2215 12.1085 13.2635 12.1355 13.2875 12.1775C13.3115 12.2195 13.3145 12.275 13.2965 12.344L12.914 13.91C12.89 14 12.857 14.066 12.815 14.108C12.773 14.15 12.7145 14.171 12.6395 14.171C12.5795 14.171 12.5225 14.156 12.4685 14.126C12.4175 14.099 12.3605 14.0705 12.2975 14.0405C12.2345 14.0135 12.155 14 12.059 14H8.729C8.651 14 8.594 13.985 8.558 13.955C8.522 13.925 8.504 13.8845 8.504 13.8335C8.504 13.7435 8.5625 13.682 8.6795 13.649L8.972 13.595C9.044 13.577 9.0995 13.5485 9.1385 13.5095C9.1775 13.4675 9.197 13.415 9.197 13.352V8.348C9.197 8.285 9.1775 8.234 9.1385 8.195C9.0995 8.153 9.044 8.123 8.972 8.105L8.6795 8.051C8.5625 8.018 8.504 7.9565 8.504 7.8665C8.504 7.8125 8.522 7.772 8.558 7.745C8.594 7.715 8.651 7.7 8.729 7.7H10.718C10.796 7.7 10.8515 7.715 10.8845 7.745C10.9205 7.772 10.9385 7.8125 10.9385 7.8665C10.9385 7.9565 10.8815 8.018 10.7675 8.051Z" fill="#1D4ED8"/>
<circle cx="12" cy="4" r="1" fill="#1D4ED8"/>
<circle cx="5" cy="12" r="1" fill="#D81D1D"/>
<circle cx="3.5" cy="12.5" r="0.5" fill="#BCB4B4"/>
<circle cx="5.5" cy="13.5" r="0.5" fill="#BCB4B4"/>
<circle cx="13.5" cy="3.5" r="0.5" fill="#BCB4B4"/>
<circle cx="12.5" cy="5.5" r="0.5" fill="#BCB4B4"/>
<circle cx="11.5" cy="2.5" r="0.5" fill="#BCB4B4"/>
<circle cx="10.5" cy="4.5" r="0.5" fill="#BCB4B4"/>
</svg>
