<svg width="32" height="32" viewBox="0 0 32 32" fill="none" xmlns="http://www.w3.org/2000/svg">
<rect width="32" height="32" fill="#1E1E1E"/>
<rect width="32" height="32" fill="white"/>
<path d="M8.833 17.685C8.833 17.781 8.797 17.859 8.725 17.919C8.653 17.973 8.542 18 8.392 18H5.305C5.155 18 5.041 17.973 4.963 17.919C4.891 17.859 4.855 17.781 4.855 17.685C4.855 17.523 4.966 17.403 5.188 17.325L5.728 17.19C6.004 17.1 6.187 17.001 6.277 16.893C6.373 16.779 6.421 16.599 6.421 16.353V7.965C6.421 7.791 6.397 7.647 6.349 7.533C6.301 7.413 6.187 7.245 6.007 7.029L5.215 6.066C5.137 5.958 5.083 5.877 5.053 5.823C5.023 5.769 5.008 5.715 5.008 5.661C5.008 5.577 5.038 5.514 5.098 5.472C5.164 5.424 5.248 5.4 5.35 5.4H6.925C7.069 5.4 7.192 5.427 7.294 5.481C7.396 5.535 7.501 5.634 7.609 5.778L15.178 15.597L14.809 16.362V7.047C14.809 6.801 14.764 6.624 14.674 6.516C14.584 6.402 14.398 6.3 14.116 6.21L13.558 6.075C13.336 5.985 13.225 5.865 13.225 5.715C13.225 5.613 13.261 5.535 13.333 5.481C13.411 5.427 13.522 5.4 13.666 5.4H16.753C16.903 5.4 17.014 5.427 17.086 5.481C17.164 5.535 17.203 5.613 17.203 5.715C17.203 5.871 17.089 5.991 16.861 6.075L16.33 6.21C16.054 6.294 15.868 6.393 15.772 6.507C15.682 6.615 15.637 6.795 15.637 7.047V15.795C15.637 15.963 15.652 16.104 15.682 16.218C15.718 16.332 15.772 16.44 15.844 16.542L16.402 17.262C16.492 17.376 16.549 17.466 16.573 17.532C16.597 17.592 16.609 17.652 16.609 17.712C16.609 17.796 16.576 17.865 16.51 17.919C16.45 17.973 16.357 18 16.231 18H14.404C14.176 18 14.062 17.907 14.062 17.721C14.062 17.631 14.044 17.547 14.008 17.469C13.978 17.391 13.882 17.25 13.72 17.046L6.601 7.767L7.249 7.281V16.362C7.249 16.596 7.294 16.77 7.384 16.884C7.474 16.992 7.66 17.094 7.942 17.19L8.5 17.325C8.722 17.409 8.833 17.529 8.833 17.685Z" fill="#1D4ED8"/>
<path d="M21.508 16.075L20.905 16.183C20.761 16.219 20.65 16.276 20.572 16.354C20.5 16.432 20.464 16.534 20.464 16.66V26.668C20.464 26.884 20.53 27.043 20.662 27.145C20.8 27.241 21.016 27.289 21.31 27.289H23.218C23.566 27.289 23.86 27.244 24.1 27.154C24.34 27.064 24.553 26.905 24.739 26.677C24.925 26.443 25.105 26.119 25.279 25.705L25.801 24.481C25.855 24.361 25.921 24.28 25.999 24.238C26.077 24.19 26.17 24.178 26.278 24.202C26.398 24.226 26.479 24.277 26.521 24.355C26.569 24.433 26.575 24.541 26.539 24.679L25.774 27.838C25.726 28.012 25.66 28.138 25.576 28.216C25.498 28.3 25.39 28.342 25.252 28.342C25.132 28.342 25.021 28.312 24.919 28.252C24.817 28.198 24.703 28.141 24.577 28.081C24.451 28.027 24.289 28 24.091 28H17.422C17.278 28 17.17 27.973 17.098 27.919C17.026 27.859 16.99 27.781 16.99 27.685C16.99 27.505 17.101 27.385 17.323 27.325L17.926 27.217C18.07 27.181 18.178 27.124 18.25 27.046C18.328 26.968 18.367 26.866 18.367 26.74V16.66C18.367 16.534 18.328 16.432 18.25 16.354C18.178 16.276 18.07 16.219 17.926 16.183L17.323 16.075C17.101 16.015 16.99 15.895 16.99 15.715C16.99 15.613 17.026 15.535 17.098 15.481C17.17 15.427 17.278 15.4 17.422 15.4H21.409C21.559 15.4 21.667 15.427 21.733 15.481C21.805 15.535 21.841 15.613 21.841 15.715C21.841 15.895 21.73 16.015 21.508 16.075Z" fill="#1D4ED8"/>
<circle cx="24" cy="8" r="2" fill="#1D4ED8"/>
<circle cx="10" cy="24" r="2" fill="#D81D1D"/>
<circle cx="7" cy="25" r="1" fill="#BCB4B4"/>
<circle cx="11" cy="27" r="1" fill="#BCB4B4"/>
<circle cx="27" cy="7" r="1" fill="#BCB4B4"/>
<circle cx="25" cy="11" r="1" fill="#BCB4B4"/>
<circle cx="23" cy="5" r="1" fill="#BCB4B4"/>
<circle cx="21" cy="9" r="1" fill="#BCB4B4"/>
</svg>
