<svg width="512" height="512" viewBox="0 0 512 512" fill="none" xmlns="http://www.w3.org/2000/svg">
<rect width="512" height="512" fill="#1E1E1E"/>
<rect width="512" height="512" fill="white"/>
<path d="M95.925 253.625C93.2417 264.475 93.2417 272.758 95.925 278.475C98.725 284.075 103.742 287.633 110.975 289.15L118.325 290.2C118.908 290.317 119.375 290.492 119.725 290.725C120.075 290.958 120.25 291.308 120.25 291.775C120.25 292.125 120.075 292.417 119.725 292.65C119.375 292.883 118.908 293 118.325 293H54.45C53.6333 293 52.9917 292.942 52.525 292.825C52.0583 292.592 51.825 292.242 51.825 291.775C51.825 291.075 52.525 290.55 53.925 290.2L59.525 289.325C66.2917 287.808 72.7667 284.192 78.95 278.475C85.25 272.758 89.8583 264.3 92.775 253.1L134.25 95.075C134.833 92.7417 134.892 90.6417 134.425 88.775C133.958 86.7917 133.375 84.8667 132.675 83L121.125 51.15C121.008 50.5667 120.95 50.0417 120.95 49.575C120.95 48.9917 121.125 48.5833 121.475 48.35C121.825 48.1166 122.35 48 123.05 48H164.525C166.042 48 167.267 48.35 168.2 49.05C169.25 49.75 170.183 51.3833 171 53.95C176.017 69.1167 180.625 83 184.825 95.6C189.025 108.2 192.933 119.983 196.55 130.95C200.167 141.917 203.608 152.358 206.875 162.275C210.258 172.192 213.525 181.875 216.675 191.325C219.942 200.775 223.15 210.458 226.3 220.375C229.567 230.175 232.95 240.5 236.45 251.35L233.3 253.8L277.225 73.2C279.908 62.35 283.583 54.3583 288.25 49.225C293.033 44.0917 298.283 41.525 304 41.525C308.55 41.525 312.05 42.75 314.5 45.2C316.95 47.5333 318.117 50.5667 318 54.3C318 58.85 316.425 63.1083 313.275 67.075C310.125 71.0417 304.817 75.5917 297.35 80.725C292.333 84.225 288.017 87.7833 284.4 91.4C280.783 95.0167 277.808 98.9833 275.475 103.3C273.142 107.617 271.275 112.575 269.875 118.175L238.025 247.675C237.675 249.775 237.5 251.525 237.5 252.925C237.5 254.325 237.85 256.25 238.55 258.7L248.35 289.5C248.583 290.667 248.583 291.542 248.35 292.125C248.233 292.708 247.592 293 246.425 293H200.925C199.642 293 198.767 292.592 198.3 291.775C197.833 290.958 197.658 289.733 197.775 288.1C197.775 286 197.717 284.367 197.6 283.2C197.483 281.917 197.133 280.4 196.55 278.65C193.633 269.667 190.367 259.75 186.75 248.9C183.25 237.933 179.458 226.325 175.375 214.075C171.408 201.708 167.267 188.933 162.95 175.75C158.633 162.45 154.258 149.033 149.825 135.5C145.392 121.85 140.958 108.2 136.525 94.55L137.925 93.675L95.925 253.625Z" fill="#1D4ED8"/>
<path d="M344.7 447H229.55C228.967 447 228.5 446.942 228.15 446.825C227.8 446.592 227.625 446.242 227.625 445.775C227.625 445.308 227.858 444.958 228.325 444.725C228.675 444.492 229.2 444.317 229.9 444.2L246.175 442.275C248.392 442.042 250.083 441.225 251.25 439.825C252.417 438.308 253.408 436.383 254.225 434.05C255.508 429.617 257.375 422.908 259.825 413.925C262.392 404.825 265.308 394.267 268.575 382.25C271.958 370.233 275.458 357.517 279.075 344.1C282.808 330.567 286.483 317.092 290.1 303.675C293.833 290.258 297.275 277.6 300.425 265.7C303.692 253.683 306.492 243.242 308.825 234.375C311.158 225.508 312.85 218.975 313.9 214.775C314.367 212.208 314.192 210.342 313.375 209.175C312.675 208.008 311.217 207.308 309 207.075L292.55 204.8C291.617 204.683 290.975 204.508 290.625 204.275C290.392 204.042 290.275 203.75 290.275 203.4C290.275 202.933 290.45 202.583 290.8 202.35C291.15 202.117 291.617 202 292.2 202H386C386.583 202 386.992 202.117 387.225 202.35C387.575 202.467 387.75 202.7 387.75 203.05C387.75 203.4 387.575 203.75 387.225 204.1C386.992 204.333 386.408 204.508 385.475 204.625L367.975 207.25C366.342 207.483 364.942 208.242 363.775 209.525C362.608 210.808 361.733 212.617 361.15 214.95C359.867 219.15 358 225.625 355.55 234.375C353.217 243.008 350.475 253.217 347.325 265C344.175 276.667 340.792 289.15 337.175 302.45C333.675 315.633 330.175 328.817 326.675 342C323.175 355.183 319.85 367.667 316.7 379.45C313.667 391.233 310.983 401.5 308.65 410.25C306.317 419 304.625 425.533 303.575 429.85C302.292 435.1 302.583 438.775 304.45 440.875C306.317 442.858 310.167 443.85 316 443.85H332.45C341.9 443.85 350.533 441.692 358.35 437.375C366.283 432.942 374.392 425.708 382.675 415.675C390.958 405.642 400.408 391.992 411.025 374.725C411.608 373.675 412.075 372.975 412.425 372.625C412.775 372.158 413.125 371.925 413.475 371.925C413.942 371.925 414.233 372.158 414.35 372.625C414.467 372.975 414.467 373.617 414.35 374.55C413.183 387.5 411.083 398.758 408.05 408.325C405.017 417.892 401.283 425.767 396.85 431.95C392.533 438.133 387.692 442.742 382.325 445.775C377.075 448.808 371.475 450.325 365.525 450.325C363.075 450.325 360.742 450.033 358.525 449.45C356.425 448.983 354.267 448.458 352.05 447.875C349.833 447.292 347.383 447 344.7 447Z" fill="#1D4ED8"/>
<circle cx="407.5" cy="100.5" r="48.5" fill="#1D4ED8"/>
<ellipse cx="450" cy="157" rx="17" ry="16" fill="#BABECA"/>
<ellipse cx="368" cy="44" rx="17" ry="16" fill="#BABECA"/>
<ellipse cx="342" cy="133" rx="17" ry="16" fill="#BABECA"/>
<ellipse cx="174" cy="428" rx="17" ry="16" fill="#BABECA"/>
<ellipse cx="83" cy="404" rx="17" ry="16" fill="#BABECA"/>
<ellipse cx="467" cy="68" rx="17" ry="16" fill="#BABECA"/>
<circle cx="135" cy="380" r="48" fill="#D81D1D"/>
</svg>
